<svg width="300" height="364" xmlns="http://www.w3.org/2000/svg" xmlns:xlink="http://www.w3.org/1999/xlink" xml:space="preserve" overflow="hidden"><defs><clipPath id="clip0"><rect x="364" y="288" width="300" height="364"/></clipPath><clipPath id="clip1"><rect x="364" y="288" width="300" height="364"/></clipPath><clipPath id="clip2"><rect x="365" y="288" width="299" height="364"/></clipPath><clipPath id="clip3"><rect x="365" y="288" width="299" height="364"/></clipPath></defs><g clip-path="url(#clip0)" transform="translate(-364 -288)"><g clip-path="url(#clip1)"><g clip-path="url(#clip2)"><g clip-path="url(#clip3)"><g><path d="M163.908 369.977C246.124 369.977 295.129 321.952 295.129 266 295.129 221.922 268.385 193.694 224.307 178.347 249.09 163.505 270.373 136.257 270.373 103.579 270.373 50.5956 226.295 17.9148 149.062 17.9148 115.878 17.9148 107.953 20.8834 76.7561 20.8834 45.5596 20.8834 24.7796 18.4184 11.8716 18.4184 3.97576 18.421 2.58954e-14 22.8739 2.58954e-14 29.3146 2.58954e-14 34.7747 2.96857 39.2275 13.3586 41.1889 40.1287 45.1382 46.5429 50.5982 46.5429 63.9568 47.0465 106.047 47.5236 137.747 47.5236 193.196 47.5236 248.644 47.5236 281.349 46.5429 323.439 46.0394 337.805 41.0829 341.754 14.3658 344.246 3.97576 345.73 1.00719 350.686 1.00719 356.12 1.00719 362.561 4.98296 367.011 12.8815 367.011 32.2037 367.011 50.5187 366.033 76.7588 366.033 101.515 366.033 124.309 370.006 163.908 370.006L163.908 369.979ZM106.471 63.9541C106.471 54.0412 108.962 50.092 116.384 47.1234 122.321 45.1355 131.227 44.1548 145.115 44.1548 186.222 44.1548 211.482 66.4456 211.482 110.02 211.482 134.272 203.557 154.575 190.702 169.948 165.416 165.495 136.711 164.011 105.514 165.495 105.514 126.374 105.514 98.1457 106.495 63.9807L106.468 63.9541ZM126.8 339.79C111.931 336.318 106.975 331.361 106.471 313.55 105.49 275.913 105.49 246.704 105.49 193.217L105.49 192.236C189.694 190.248 233.746 209.067 233.746 270.479 233.746 306.632 208.009 342.785 156.006 342.785 142.621 342.785 134.193 341.804 126.798 339.817L126.798 339.79ZM428.821 370.957C471.915 370.957 501.628 349.676 519.439 328.366 527.364 318.957 522.407 310.528 514.509 310.528 512.521 310.528 510.533 311.509 508.572 312.516 487.792 325.398 471.438 332.316 449.147 332.316 400.116 332.316 370.88 289.245 370.88 240.21L370.88 239.23C419.438 232.285 466.959 222.876 515.993 211.505 522.407 210.021 526.86 205.065 525.376 197.643 517.478 161.994 484.797 122.872 428.344 122.872 371.888 122.872 319.885 175.352 319.885 251.13 319.885 322.429 365.951 370.957 428.821 370.957ZM425.375 148.134C457.072 148.134 471.412 176.866 471.412 188.237 471.412 192.186 469.424 195.181 464.971 196.162 438.23 203.106 406.053 209.52 372.365 215.484 378.302 170.425 400.593 148.134 425.375 148.134ZM545.679 367.008C561.529 367.008 578.36 365.526 597.682 365.526 617.004 365.526 639.266 367.008 655.116 367.008 662.06 367.008 665.506 362.558 665.506 357.601 665.506 352.168 662.564 347.689 652.651 346.204 627.391 343.236 624.927 340.771 624.423 330.354 623.445 303.107 623.445 278.855 623.445 247.155L623.445 205.568C649.179 171.403 661.08 164.459 673.935 164.459 689.307 164.459 702.162 183.781 708.603 183.781 712.075 183.781 714.063 182.8 716.528 177.844 721.485 167.931 726.415 158.045 731.371 147.628 734.34 141.187 732.855 137.715 726.918 133.766 715.044 125.841 702.666 120.407 690.288 120.407 668.474 120.407 648.675 138.722 623.922 179.328 623.922 162.975 624.426 145.163 624.903 125.364 624.903 118.923 620.927 117.439 615.493 118.923 589.757 125.841 565.478 129.817 544.672 131.301 536.27 132.282 533.301 135.754 533.301 141.214 533.301 146.674 536.27 150.623 545.652 152.107 567.466 156.057 569.931 158.548 570.435 169.442 571.415 194.198 571.415 220.438 571.415 247.181 571.415 278.881 571.415 303.133 570.435 330.381 569.931 340.771 568.447 343.262 546.633 346.231 537.727 348.219 534.759 352.168 534.759 357.628 534.759 362.584 538.231 367.035 545.626 367.035ZM729.383 367.008C745.737 367.008 762.064 365.526 781.89 365.526 801.716 365.526 818.517 367.008 834.871 367.008 842.292 367.008 845.738 362.558 845.738 357.601 845.738 352.168 842.769 348.192 833.864 346.204 811.599 342.732 809.108 341.248 809.108 330.858 808.604 315.008 808.604 299.158 808.604 283.811 819.471 276.867 830.391 269.445 840.781 262.024 861.561 293.221 882.845 325.398 903.651 355.11 910.092 364.519 913.564 366.504 923.981 366.504 938.824 366.504 957.165 366.001 978.449 366.504 985.894 366.504 989.843 362.054 989.843 356.594 989.843 351.638 987.856 347.185 977.442 346.204 963.58 344.72 956.158 337.776 944.257 322.429 923.477 294.201 901.69 262.024 881.361 230.828 881.361 230.324 881.864 230.324 882.341 229.847 920.482 196.663 945.742 171.403 964.534 146.647 966.999 143.175 968.509 140.207 968.509 137.238 968.509 131.301 964.534 127.325 956.635 127.829 933.364 129.817 912.054 129.817 885.814 128.332 875.397 127.829 872.455 132.785 872.455 137.742 872.455 142.195 875.901 147.151 882.845 148.635L892.758 151.1C909.085 155.076 909.085 168.435 888.782 189.718 866.995 212.99 838.767 235.28 808.074 254.576L808.074 193.164C808.074 152.054 808.074 106.998 809.558 6.97084 809.558 0.530102 805.583-0.954184 800.152 0.530102 774.415 6.97084 749.66 10.9201 729.33 12.908 720.928 13.4116 717.456 17.3608 717.456 22.3173 717.456 27.7508 720.928 31.7266 730.311 33.2109 752.125 37.1601 754.563 39.6516 755.067 51.0488 756.047 101.061 756.047 148.108 756.047 193.166 756.047 238.225 756.047 282.804 755.067 330.831 754.563 341.221 752.575 342.706 730.311 346.178 721.405 348.166 718.437 352.115 718.437 357.575 718.437 362.531 721.909 366.984 729.304 366.984ZM1086.91 370.957C1130 370.957 1159.71 349.676 1177.52 328.366 1185.45 318.957 1180.49 310.528 1172.59 310.528 1170.61 310.528 1168.62 311.509 1166.66 312.516 1145.85 325.398 1129.53 332.316 1107.23 332.316 1058.2 332.316 1028.96 289.245 1028.96 240.21L1028.96 239.23C1077.52 232.285 1125.05 222.876 1174.08 211.505 1180.49 210.021 1184.94 205.065 1183.46 197.643 1175.54 161.994 1142.88 122.872 1086.4 122.872 1029.92 122.872 977.972 175.352 977.972 251.13 977.972 322.429 1024.04 370.957 1086.91 370.957ZM1083.46 148.134C1115.13 148.134 1129.5 176.866 1129.5 188.237 1129.5 192.186 1127.51 195.181 1123.06 196.162 1096.31 203.106 1064.14 209.52 1030.45 215.484 1036.39 170.425 1058.68 148.134 1083.46 148.134ZM1195.36 367.008C1211.69 367.008 1229.05 365.526 1248.82 365.526 1268.59 365.526 1286.96 367.008 1303.29 367.008 1310.74 367.008 1314.18 362.558 1314.18 357.601 1314.18 352.168 1310.71 347.211 1302.28 346.204 1280.02 343.739 1276.04 341.248 1276.04 330.858 1275.06 282.831 1275.06 237.772 1275.06 193.19 1275.06 152.081 1275.06 107.025 1276.55 6.99735 1276.55 0.556607 1272.57-0.927678 1267.14 0.556607 1241.4 6.99735 1216.64 10.9466 1196.34 12.9345 1187.91 13.4381 1184.44 17.3873 1184.44 22.3438 1184.44 27.7773 1187.91 31.7531 1197.32 33.2374 1219.11 37.1866 1221.57 39.6781 1222.08 51.0753 1223.06 101.088 1223.06 148.134 1223.06 193.19 1223.06 238.249 1223.06 282.831 1222.08 330.858 1221.57 341.248 1218.61 343.236 1196.34 346.204 1187.41 347.185 1184.44 352.141 1184.44 357.601 1184.44 362.558 1187.91 367.008 1195.33 367.008ZM1426.62 370.957C1469.71 370.957 1499.43 349.676 1517.24 328.366 1525.16 318.957 1520.2 310.528 1512.28 310.528 1510.29 310.528 1508.3 311.509 1506.34 312.516 1485.56 325.398 1469.24 332.316 1446.92 332.316 1397.91 332.316 1368.7 289.245 1368.7 240.21L1368.7 239.23C1417.21 232.285 1464.78 222.876 1513.79 211.505 1520.23 210.021 1524.68 205.065 1523.2 197.643 1515.28 161.994 1482.59 122.872 1426.14 122.872 1369.68 122.872 1317.71 175.352 1317.71 251.13 1317.71 322.429 1363.75 370.957 1426.64 370.957ZM1423.14 148.134C1454.84 148.134 1469.21 176.866 1469.21 188.237 1469.21 192.186 1467.22 195.181 1462.77 196.162 1436.02 203.106 1403.85 209.52 1370.16 215.484 1376.1 170.425 1398.39 148.134 1423.14 148.134ZM1577.64 486.361C1602.39 486.361 1625.67 468.046 1672.24 370.48 1703.94 301.146 1727.68 239.76 1752.44 176.866 1760.36 156.563 1764.34 152.614 1776.69 149.142 1785.62 146.677 1789.09 143.204 1789.09 137.744 1789.09 132.788 1786.13 128.335 1778.68 128.335 1767.81 128.335 1754.9 129.819 1740.09 129.819 1725.27 129.819 1713.32 128.335 1701.95 128.335 1695 128.335 1691.53 132.284 1691.53 137.241 1691.53 142.674 1695 146.146 1702.93 148.638 1724.71 154.575 1726.7 163.984 1718.27 189.747 1704.91 230.353 1690.05 269.472 1667.28 321.475 1647.98 273.448 1631.63 230.35 1615.3 181.82 1609.37 163.001 1611.33 155.076 1634.6 148.635 1643.53 146.17 1646.5 143.202 1646.5 137.742 1646.5 132.282 1642.52 128.332 1635.61 128.332 1620.76 128.332 1605.39 129.817 1585.11 129.817 1563.3 129.817 1547.48 128.332 1532.1 128.332 1524.71 128.332 1521.24 132.785 1521.24 137.742 1521.24 143.679 1524.21 146.647 1533.11 149.139 1544.51 152.107 1547.98 156.057 1554.92 173.895 1582.14 241.721 1606.42 301.649 1638.1 382.858 1616.81 421.98 1600.96 430.885 1579.65 434.861 1562.29 437.83 1550.92 448.723 1550.92 462.585 1550.92 473.983 1558.85 486.361 1577.67 486.361Z" fill="#002676" fill-rule="nonzero" fill-opacity="1" transform="matrix(1.00174 0 0 1 366.038 274.905)"/></g></g></g></g></g></svg>