<svg width="1900" height="1899" xmlns="http://www.w3.org/2000/svg" xmlns:xlink="http://www.w3.org/1999/xlink" xml:space="preserve" overflow="hidden"><g transform="translate(-404 -1030)"><g><g><g><g><path d="M841.738 2079.84C839.958 2066.4 839.958 2052.95 839.958 2039.31 839.974 1840.6 954.524 1659.69 1134.15 1574.7 1123.99 1549.51 1118.3 1522.75 1117.34 1495.61 900.93 1589.78 760.942 1803.3 760.875 2039.31 760.875 2059.48 761.864 2079.25 763.841 2098.62 788.532 2087.93 814.885 2081.58 841.738 2079.84Z" fill="#595959" fill-rule="nonzero" fill-opacity="1"/><path d="M1868.04 2039.31C1868.04 2052.95 1868.04 2066.4 1866.26 2078.85 1893.17 2080.9 1919.53 2087.59 1944.16 2098.62 1946.14 2078.85 1947.12 2059.08 1947.12 2039.31 1947.16 1803.44 1807.43 1589.96 1591.25 1495.61 1590.29 1522.75 1584.6 1549.51 1574.44 1574.7 1753.84 1659.86 1868.13 1840.73 1868.04 2039.31Z" fill="#595959" fill-rule="nonzero" fill-opacity="1"/><path d="M1656.1 2454.5C1476.18 2586.04 1231.82 2586.04 1051.9 2454.5 1036.18 2476.32 1016.85 2495.31 994.764 2510.65 1206.83 2672.74 1501.17 2672.74 1713.24 2510.65 1691.15 2495.31 1671.82 2476.32 1656.1 2454.5Z" fill="#595959" fill-rule="nonzero" fill-opacity="1"/><path d="M1512.17 1485.73C1512.17 1573.08 1441.35 1643.9 1354 1643.9 1266.65 1643.9 1195.83 1573.08 1195.83 1485.73 1195.83 1398.38 1266.65 1327.56 1354 1327.56 1441.35 1327.56 1512.17 1398.38 1512.17 1485.73Z" fill="#595959" fill-rule="nonzero" fill-opacity="1"/><path d="M2006.44 2316.1C2006.44 2403.46 1935.62 2474.27 1848.27 2474.27 1760.92 2474.27 1690.1 2403.46 1690.1 2316.1 1690.1 2228.75 1760.92 2157.94 1848.27 2157.94 1935.62 2157.94 2006.44 2228.75 2006.44 2316.1Z" fill="#595959" fill-rule="nonzero" fill-opacity="1"/><path d="M1017.9 2316.1C1017.9 2403.46 947.082 2474.27 859.729 2474.27 772.376 2474.27 701.562 2403.46 701.562 2316.1 701.562 2228.75 772.376 2157.94 859.729 2157.94 947.082 2157.94 1017.9 2228.75 1017.9 2316.1Z" fill="#595959" fill-rule="nonzero" fill-opacity="1"/></g></g></g></g></g></svg>